<svg width="80" height="80" viewBox="0 0 80 80" xmlns="http://www.w3.org/2000/svg"><title>icon/medal-beginner</title><desc>Created with Sketch.</desc><g transform="translate(8 8)" fill-rule="nonzero" fill="none"><circle fill="#13DCDC" cx="32" cy="32" r="32"/><path d="M32 44.241l-11.486 6.038c-.489.257-1.093.069-1.35-.42-.102-.195-.138-.418-.1-.634l2.194-12.79-9.292-9.058c-.395-.386-.404-1.019-.018-1.414.154-.157.355-.26.572-.292l12.842-1.866 5.743-11.636c.244-.495.844-.699 1.339-.454.197.097.357.257.454.454l5.743 11.636 12.842 1.866c.547.079.925.587.846 1.133-.032.218-.134.419-.292.572l-9.292 9.058 2.194 12.79c.093.544-.272 1.061-.817 1.155-.217.037-.44.002-.634-.1l-11.486-6.038z" fill="#A2E8E8"/></g></svg>