<svg width="144" height="111" viewBox="0 0 144 111" xmlns="http://www.w3.org/2000/svg"><title>Group 6</title><desc>Created with Sketch.</desc><g fill-rule="nonzero" fill="none"><path fill="#DD2E44" d="M21.756 46.001l4.242 4.242-4.242 4.242-4.242-4.242z"/><path fill="#DD2E44" d="M92.244 91.515l4.242 4.242-4.242 4.242-4.242-4.242z"/><path fill="#DD2E44" d="M139.243 54.002l4.242 4.242-4.242 4.242-4.242-4.242z"/><path fill="#DD2E44" d="M38.243 7.002l4.242 4.242-4.242 4.242-4.242-4.242z"/><path fill="#FFCC4D" d="M115.243 66.002l4.242 4.242-4.242 4.242-4.242-4.242z"/><path fill="#FFCC4D" d="M72 .758l4.242 4.242-4.242 4.242-4.242-4.242z"/><path fill="#FFCC4D" d="M72 101.758l4.242 4.242-4.242 4.242-4.242-4.242z"/><path fill="#FFCC4D" d="M126.243 14.002l4.242 4.242-4.242 4.242-4.242-4.242z"/><path fill="#FFCC4D" d="M114.243 93.002l4.242 4.242-4.242 4.242-4.242-4.242z"/><path fill="#FFCC4D" d="M33.243 61.002l4.242 4.242-4.242 4.242-4.242-4.242z"/><path fill="#FFCC4D" d="M11.756 28.001l4.242 4.242-4.242 4.242-4.242-4.242z"/><path fill="#FFCC4D" d="M88.243 14.002l4.242 4.242-4.242 4.242-4.242-4.242z"/><path fill="#FFCC4D" d="M56.243 15.002l4.242 4.242-4.242 4.242-4.242-4.242z"/><path fill="#FFCC4D" d="M34.243 86.002l4.242 4.242-4.242 4.242-4.242-4.242z"/><path fill="#26AAE1" d="M0 55h6v6h-6z"/><path fill="#26AAE1" d="M133 36.485h6v6h-6z"/><path fill="#26AAE1" d="M98.515 6h6v6h-6z"/><path fill="#9266CD" d="M53 95h6v6h-6z"/><path fill="#9266CD" d="M110 27h6v6h-6z"/><path fill="#9266CD" d="M16 72h6v6h-6z"/><path fill="#77B255" d="M112 46h6v6h-6z"/><path fill="#77B255" d="M30 27h6v6h-6z"/><path fill="#77B255" d="M124 79h6v6h-6z"/></g></svg>