<?xml version="1.0" encoding="UTF-8"?>
<svg width="200px" height="56px" viewBox="0 0 200 56" version="1.1" xmlns="http://www.w3.org/2000/svg" xmlns:xlink="http://www.w3.org/1999/xlink">
    <!-- Generator: Sketch 51.2 (57519) - http://www.bohemiancoding.com/sketch -->
    <title>logo</title>
    <desc>Created with Sketch.</desc>
    <defs>
        <polygon id="path-1" points="41.4758453 55.7377049 0 55.7377049 0 0.22578494 41.4758453 0.22578494 41.4758453 55.7377049"></polygon>
        <polygon id="path-3" points="41.3264315 0.22651127 0.0122073191 0.22651127 0.0122073191 40.4111902 41.3264315 40.4111902"></polygon>
        <polygon id="path-5" points="41.4981835 0.22651127 0.183959265 0.22651127 0.183959265 40.4111902 41.4981835 40.4111902"></polygon>
        <polygon id="path-7" points="29.3609697 20.318835 29.3609697 0.22651127 0.159155912 0.22651127 0.159155912 40.4111586 29.3609697 40.4111586 29.3609697 20.318835"></polygon>
    </defs>
    <g id="Page-1" stroke="none" stroke-width="1" fill="none" fill-rule="evenodd">
        <g id="iPhoneX-Copy" transform="translate(-2057.000000, -704.000000)">
            <g id="Page-1" transform="translate(2057.000000, 704.000000)">
                <g id="Group-3">
                    <mask id="mask-2" fill="white">
                        <use xlink:href="#path-1"></use>
                    </mask>
                    <g id="Clip-2"></g>
                    <path d="M10.267897,20.6986848 C10.267897,27.4961656 14.2296125,32.0279244 20.2124574,32.0279244 C26.1953022,32.0279244 30.4801341,27.2533759 30.4801341,20.6177549 C30.4801341,13.7393443 26.3570177,8.88418079 20.5358884,8.88418079 C14.4721858,8.88418079 10.267897,13.7393443 10.267897,20.6986848 Z M10.267897,1.5205057 L10.267897,6.1328795 C13.3401772,2.00608502 16.9784617,0.225627489 22.5570177,0.225627489 C26.5187332,0.225627489 29.8335867,1.19678614 32.98641,3.30064833 C38.6461384,7.18496805 41.4758453,12.8494304 41.4758453,20.3752802 C41.4758453,32.351644 34.0375609,40.2818283 22.799591,40.2818283 C17.3827505,40.2818283 13.4210349,38.5823006 10.267897,34.9410855 L10.267897,55.7378624 L-9.43864878e-05,55.7378624 L-9.43864878e-05,1.5205057 L10.267897,1.5205057 Z" id="Fill-1" fill="#FFFFFF" mask="url(#mask-2)"></path>
                </g>
                <g id="Group-6" transform="translate(46.994536, 0.000000)">
                    <mask id="mask-4" fill="white">
                        <use xlink:href="#path-3"></use>
                    </mask>
                    <g id="Clip-5"></g>
                    <path d="M11.0079185,20.602985 C11.0079185,27.178762 15.2930651,32.1307343 20.8716211,32.1307343 C26.6118927,32.1307343 31.2201557,26.7728108 31.2201557,20.27854 C31.2201557,13.6212568 27.0158669,8.91285519 20.9521643,8.91285519 C15.1310349,8.91285519 11.0079185,13.7024471 11.0079185,20.602985 Z M31.0584401,1.52517589 L41.3264315,1.52517589 L41.3264315,39.1124624 L31.0584401,39.1124624 L31.0584401,33.9169194 C27.5818712,38.3817503 23.5396125,40.4111902 18.0415996,40.4111902 C7.53134956,40.4111902 0.0122073191,32.2119245 0.0122073191,20.7653654 C0.0122073191,8.91285519 7.93563835,0.226448087 18.8501772,0.226448087 C23.9439013,0.226448087 27.4204703,2.01231728 31.0584401,6.31508367 L31.0584401,1.52517589 Z" id="Fill-4" fill="#FFFFFF" mask="url(#mask-4)"></path>
                </g>
                <path d="M108.582186,1.27753161 L108.582186,6.70805093 C109.628267,3.99263589 110.352694,2.87483458 111.88204,1.7567225 C113.491564,0.638610426 115.664845,0 117.918305,0 C118.15978,0 118.56224,0 119.125683,0.0798651482 L119.125683,10.4610914 C118.320764,10.3812262 117.515845,10.3013611 116.952402,10.3013611 C114.135499,10.3013611 111.560072,11.5788927 110.111218,13.6553865 C108.904153,15.3325547 108.582186,16.9295469 108.582186,20.4433026 L108.582186,38.2513661 L98.3606557,38.2513661 L98.3606557,1.27753161 L108.582186,1.27753161 Z" id="Fill-7" fill="#FFFFFF"></path>
                <g id="Group-11" transform="translate(122.404372, 0.000000)">
                    <mask id="mask-6" fill="white">
                        <use xlink:href="#path-5"></use>
                    </mask>
                    <g id="Clip-10"></g>
                    <path d="M11.1796705,20.602985 C11.1796705,27.178762 15.464817,32.1307343 21.0433731,32.1307343 C26.7836446,32.1307343 31.3919076,26.7728108 31.3919076,20.27854 C31.3919076,13.6212568 27.1876188,8.91285519 21.1239162,8.91285519 C15.3027869,8.91285519 11.1796705,13.7024471 11.1796705,20.602985 Z M31.2301921,1.52517589 L41.4981835,1.52517589 L41.4981835,39.1124624 L31.2301921,39.1124624 L31.2301921,33.9169194 C27.7536231,38.3817503 23.7113645,40.4111902 18.2133515,40.4111902 C7.70310151,40.4111902 0.183959265,32.2119245 0.183959265,20.7653654 C0.183959265,8.91285519 8.1073903,0.226448087 19.0219291,0.226448087 C24.1156533,0.226448087 27.5922222,2.01231728 31.2301921,6.31508367 L31.2301921,1.52517589 Z" id="Fill-9" fill="#FFFFFF" mask="url(#mask-6)"></path>
                </g>
                <g id="Group-14" transform="translate(170.491803, 0.000000)">
                    <mask id="mask-8" fill="white">
                        <use xlink:href="#path-7"></use>
                    </mask>
                    <g id="Clip-13"></g>
                    <path d="M19.1162888,12.4036877 L19.1162888,11.7541658 C19.1162888,9.48115523 17.0996861,7.85735058 14.3566795,7.85735058 C11.8563307,7.85735058 10.2427973,9.23758453 10.2427973,11.2670244 C10.2427973,12.2413072 10.6461807,13.2152741 11.291594,13.7024155 C12.4207534,14.595508 12.5014301,14.595508 17.6644227,16.2193127 C26.0538542,18.8170842 29.3609697,22.1455678 29.3609697,28.2338875 C29.3609697,35.5403765 23.5528776,40.4111586 14.8407394,40.4111586 C5.96724799,40.4111586 0.56253924,35.8654534 0.159155912,28.0718229 L10.0007674,28.0718229 C10.4848273,31.3191163 11.9366934,32.7802246 14.9214161,32.7802246 C17.3417161,32.7802246 19.0356121,31.3191163 19.0356121,29.2081703 C19.0356121,26.9351597 17.5837461,25.8796866 12.0980467,24.1750077 C4.03132194,21.7396166 0.401185909,18.0863721 0.401185909,12.160117 C0.401185909,5.01600837 6.12860133,0.226416496 14.8407394,0.226416496 C23.3918382,0.226416496 28.5545169,4.77275359 28.7965469,12.4036877 L19.1162888,12.4036877 Z" id="Fill-12" fill="#FFFFFF" mask="url(#mask-8)"></path>
                </g>
            </g>
        </g>
    </g>
</svg>