<svg xmlns="http://www.w3.org/2000/svg" viewBox="0 0 199.85 55.74"><defs><style>.cls-1{fill:#fff;}.cls-2{mask:url(#mask);}.cls-3{mask:url(#mask-2-2);}.cls-4{mask:url(#mask-3);}.cls-5{mask:url(#mask-4-2);}</style><mask id="mask" x="0" y=".23" width="41.48" height="55.51" maskUnits="userSpaceOnUse"><path id="path-1" class="cls-1" d="M41.48 55.74h-41.48v-55.51h41.48v55.51z"/></mask><mask id="mask-2-2" x="47.01" y=".23" width="41.31" height="40.18" maskUnits="userSpaceOnUse"><path id="path-3" class="cls-1" d="M88.32.23h-41.31v40.18h41.31v-40.18z"/></mask><mask id="mask-3" x="122.59" y=".23" width="41.31" height="40.18" maskUnits="userSpaceOnUse"><path id="path-5" class="cls-1" d="M163.9.23h-41.31v40.18h41.31v-40.18z"/></mask><mask id="mask-4-2" x="170.65" y=".23" width="29.2" height="40.18" maskUnits="userSpaceOnUse"><path id="path-7" class="cls-1" d="M199.85 20.32v-20.09h-29.2v40.18h29.2v-20.09z"/></mask></defs><title>logo</title><g id="Page-1-2"><path id="Fill-1" class="cls-1" d="M10.27 20.7c0 6.8 4 11.33 9.94 11.33s10.27-4.78 10.27-11.41c0-6.88-4.12-11.74-9.94-11.74-6.07 0-10.27 4.86-10.27 11.82zm0-19.18v4.61c3.07-4.13 6.73-5.9 12.29-5.9a18 18 0 0 1 10.44 3.07c5.66 3.88 8.49 9.55 8.49 17.08 0 12-7.44 19.9-18.68 19.9-5.42 0-9.38-1.7-12.53-5.34v20.8h-10.28v-54.22z"/><path id="Fill-4" class="cls-1" d="M58 20.6c0 6.58 4.29 11.53 9.87 11.53 5.74 0 10.34-5.36 10.34-11.85 0-6.66-4.21-11.37-10.21-11.37-5.87 0-10 4.79-10 11.69zm20-19.07h10.32v37.58h-10.27v-5.19c-3.47 4.46-7.52 6.49-13 6.49-10.51 0-18-8.2-18-19.64-.05-11.86 7.88-20.54 18.79-20.54 5.1 0 8.58 1.78 12.21 6.09z"/><path id="Fill-7" class="cls-1" d="M108.58 1.28v5.43c1-2.72 1.77-3.84 3.3-4.95a10.72 10.72 0 0 1 6-1.76 8.09 8.09 0 0 1 1.21.08v10.38c-.81-.08-1.61-.16-2.18-.16a8.3 8.3 0 0 0-6.84 3.36c-1.21 1.67-1.53 3.27-1.53 6.78v17.81h-10.18v-37z"/><path id="Fill-9" class="cls-1" d="M133.58 20.6c0 6.58 4.29 11.53 9.87 11.53 5.74 0 10.35-5.36 10.35-11.85 0-6.66-4.21-11.37-10.27-11.37-5.82 0-9.95 4.79-9.95 11.69zm20-19.07h10.32v37.58h-10.27v-5.19c-3.47 4.46-7.51 6.49-13 6.49-10.51 0-18-8.2-18-19.64 0-11.86 7.92-20.54 18.84-20.54 5.09 0 8.57 1.78 12.2 6.09z"/><path id="Fill-12" class="cls-1" d="M189.61 12.4v-.65c0-2.27-2-3.89-4.76-3.89-2.5 0-4.12 1.38-4.12 3.41a3.13 3.13 0 0 0 1.05 2.43c1.13.9 1.21.9 6.38 2.52 8.39 2.6 11.69 5.93 11.69 12 0 7.31-5.81 12.18-14.52 12.18-8.87 0-14.28-4.54-14.68-12.34h9.84c.49 3.25 1.94 4.71 4.92 4.71 2.42 0 4.12-1.46 4.12-3.57 0-2.27-1.45-3.33-6.94-5-8.07-2.44-11.7-6.09-11.7-12 0-7.2 5.73-11.97 14.44-11.97 8.55 0 13.72 4.54 14 12.17z"/></g></svg>