<svg width="80" height="80" viewBox="0 0 80 80" xmlns="http://www.w3.org/2000/svg"><title>icon/friend</title><desc>Created with Sketch.</desc><path d="M24 38.765c7.738 0 14-6.21 14-13.882s-6.262-13.882-14-13.882-14 6.21-14 13.882 6.262 13.882 14 13.882zm9.6 3.966h-1.038c-2.6 1.239-5.488 1.983-8.563 1.983s-5.95-.744-8.563-1.983h-1.037c-7.95 0-14.4 6.396-14.4 14.279v3.57c0 3.285 2.688 5.95 6 5.95h36c3.313 0 6-2.665 6-5.95v-3.57c0-7.883-6.45-14.279-14.4-14.279zm26.4-3.966c6.625 0 12-5.33 12-11.899 0-6.569-5.375-11.899-12-11.899s-12 5.33-12 11.899c0 6.569 5.375 11.899 12 11.899zm6 3.966h-.475c-1.738.595-3.575.992-5.525.992-1.95 0-3.788-.397-5.525-.992h-.475c-2.55 0-4.9.731-6.962 1.909 3.05 3.26 4.962 7.586 4.962 12.37v4.76c0 .273-.063.533-.075.793h22.075c3.313 0 6-2.665 6-5.95 0-7.672-6.263-13.882-14-13.882z" fill="#8E8E93" fill-rule="nonzero"/></svg>