<svg width="80" height="80" viewBox="0 0 80 80" xmlns="http://www.w3.org/2000/svg"><title>icon/search</title><desc>Created with Sketch.</desc><path d="M35.133 10.001c-13.853 0-25.133 11.281-25.133 25.133 0 13.853 11.281 25.133 25.133 25.133 6.052 0 11.617-2.169 15.962-5.751l14.746 14.771c.95.95 2.496.95 3.446 0 .95-.95.95-2.496 0-3.446l-14.771-14.746c3.582-4.345 5.751-9.91 5.751-15.962 0-13.853-11.281-25.133-25.133-25.133l-.001.001zm0 4.865c11.224 0 20.269 9.045 20.269 20.269 0 11.224-9.045 20.269-20.269 20.269-11.224 0-20.269-9.045-20.269-20.269 0-11.224 9.045-20.269 20.269-20.269z" fill="#fff" fill-rule="nonzero"/></svg>