<svg xmlns="http://www.w3.org/2000/svg" viewBox="0 0 419 419"><defs><style>.cls-1{fill:inherit;}.cls-2{fill:none;}</style></defs><g><path class="cls-1" d="M318.9 167.67h-99.32v36.59a47 47 0 1 1-94.09 0v-79.45l-42.41 25.48a41.74 41.74 0 0 0-20.32 35.81v30.9l-52.27 30.19a20.85 20.85 0 0 0-7.64 28.55l52.27 90.57a20.92 20.92 0 0 0 28.55 7.69l67.56-39h89.26a41.86 41.86 0 0 0 41.82-41.82h10.45a20.88 20.88 0 0 0 20.91-20.9v-41.88h5.23a15.64 15.64 0 0 0 15.68-15.68v-31.37a15.64 15.64 0 0 0-15.68-15.68zm96.5-24.44l-52.27-90.56a20.92 20.92 0 0 0-28.55-7.67l-67.58 39h-66.76a42.17 42.17 0 0 0-22.15 6.33l-21.89 13.67a20.77 20.77 0 0 0-9.8 17.71v82.52a26.14 26.14 0 1 0 52.27 0v-57.5h120.23a36.61 36.61 0 0 1 36.59 36.59v18.68l52.27-30.19a20.93 20.93 0 0 0 7.64-28.58z"/><path class="cls-2" d="M0 0h419v419h-419z"/></g></svg>