<svg xmlns="http://www.w3.org/2000/svg" viewBox="0 0 419 419"><defs><style>.cls-1{fill:inherit;}.cls-2{fill:none;}</style></defs><g><rect class="cls-1" x="152.02" y="301.72" width="198.4" height="42.26" rx="4.88" ry="4.88"/><rect class="cls-1" x="73.37" y="301.72" width="42.26" height="42.26" rx="3.52" ry="3.52"/><rect class="cls-1" x="152.02" y="193.48" width="198.4" height="42.26" rx="4.88" ry="4.88"/><rect class="cls-1" x="73.37" y="193.48" width="42.26" height="42.26" rx="3.52" ry="3.52"/><path class="cls-1" d="M186.17 101.45a4.76 4.76 0 0 0 .47-.31 3.75 3.75 0 0 0 .44-.35 4.94 4.94 0 0 0 .55-.57 4.2 4.2 0 0 0 .37-.49l.22-.35a5.49 5.49 0 0 0 .65-1.83 5.33 5.33 0 0 0-.06-2.14 5.44 5.44 0 0 0-.61-1.56l-4.71-8.16-6.86-11.89a5.57 5.57 0 0 0-7.61-2l-53.87 31.1a5.57 5.57 0 0 1-7.61-2l-11.54-20.12a5.57 5.57 0 0 0-7.61-2l-22.3 12.82a5.57 5.57 0 0 0-2 7.61l14.36 24.87 14.27 24.92a5.57 5.57 0 0 0 7.61 2l51.67-29.83zM345.54 85.69h-141.29a23.6 23.6 0 0 1-9.08 31.31l-18.89 11h169.26a4.88 4.88 0 0 0 4.88-4.88v-32.55a4.87 4.87 0 0 0-4.88-4.88z"/><path class="cls-2" d="M0 0h419v419h-419z"/></g></svg>